<?xml version="1.0" standalone="no"?>
<!DOCTYPE svg PUBLIC "-//W3C//DTD SVG 20010904//EN"
 "http://www.w3.org/TR/2001/REC-SVG-20010904/DTD/svg10.dtd">
<svg version="1.0" xmlns="http://www.w3.org/2000/svg"
 width="700.000000pt" height="700.000000pt" viewBox="0 0 700.000000 700.000000"
 preserveAspectRatio="xMidYMid meet">
<metadata>
Created by potrace 1.14, written by Peter Selinger 2001-2017
</metadata>
<g transform="translate(0.000000,700.000000) scale(0.100000,-0.100000)"
fill="#000000" stroke="none">
<path d="M3157 6115 c-318 -532 -338 -564 -360 -556 -12 5 -281 120 -597 256
-316 136 -585 251 -598 256 -20 8 -22 6 -18 -19 3 -15 7 -58 11 -97 3 -38 8
-81 10 -95 2 -14 6 -61 10 -105 4 -44 9 -87 10 -97 2 -9 6 -51 10 -93 3 -43 8
-92 10 -109 2 -17 6 -58 10 -91 3 -33 8 -78 10 -100 9 -74 35 -339 41 -405 3
-36 7 -71 9 -77 5 -16 18 -13 -615 -148 -737 -156 -700 -148 -692 -161 4 -6
46 -54 94 -105 47 -52 96 -105 108 -119 12 -13 63 -69 113 -124 51 -54 100
-108 110 -120 10 -12 35 -39 56 -61 20 -22 88 -96 150 -165 63 -69 145 -159
183 -200 37 -41 68 -77 68 -80 0 -5 -101 -119 -204 -230 -28 -30 -98 -107
-156 -170 -58 -63 -127 -139 -155 -169 -27 -29 -55 -59 -60 -65 -117 -130
-302 -333 -310 -338 -13 -10 -5 -16 30 -22 33 -6 772 -163 1085 -231 107 -23
194 -46 194 -51 -1 -5 -5 -45 -8 -89 -4 -44 -9 -91 -11 -105 -2 -14 -7 -56
-10 -95 -6 -74 -8 -97 -24 -240 -6 -49 -13 -115 -16 -145 -8 -82 -15 -155 -26
-260 -11 -110 -16 -162 -24 -245 -3 -33 -8 -72 -11 -87 -4 -19 -1 -28 8 -28
10 0 861 361 1003 425 17 8 59 26 95 41 36 15 79 33 97 40 l32 14 338 -565
c186 -311 340 -565 343 -565 4 0 384 627 425 702 74 136 259 428 268 425 43
-17 890 -382 922 -396 22 -11 97 -42 165 -71 69 -29 129 -54 133 -57 5 -3 6
10 3 29 -3 18 -8 56 -10 83 -9 91 -27 269 -32 315 -9 88 -13 126 -19 195 -4
39 -8 81 -10 95 -2 14 -7 57 -11 95 -3 39 -16 166 -28 283 -19 188 -20 213 -6
217 12 3 1061 228 1120 240 135 27 179 39 172 51 -4 7 -27 34 -52 61 -25 26
-88 95 -140 152 -52 58 -102 112 -110 121 -15 16 -187 204 -205 224 -5 6 -57
63 -115 126 -108 118 -148 162 -219 240 -23 25 -41 47 -41 50 0 3 17 24 38 46
20 23 57 63 81 90 24 27 65 72 90 99 25 28 93 102 151 165 58 63 107 117 110
120 3 3 75 82 160 175 207 227 233 255 249 272 7 8 12 16 10 17 -2 2 -200 46
-439 96 -782 166 -875 187 -874 196 1 5 5 46 8 91 4 46 9 91 10 100 2 10 7 52
10 93 4 41 9 91 11 110 8 69 15 138 40 385 14 138 27 268 30 290 2 22 7 69 10
105 3 36 8 80 11 98 3 19 2 32 -3 29 -4 -3 -53 -24 -108 -47 -55 -23 -124 -53
-153 -66 -29 -13 -55 -24 -57 -24 -3 0 -24 -9 -48 -20 -23 -10 -226 -98 -452
-195 l-410 -175 -17 22 c-9 13 -25 39 -36 58 -10 19 -78 134 -151 255 -72 121
-135 227 -140 235 -139 235 -337 560 -341 560 -3 0 -157 -254 -343 -565z"/>
</g>
</svg>
